<svg width="512" height="512" version="1.1" xmlns="http://www.w3.org/2000/svg" desc="Created with imagetracer.js version 0.2.1" ><path fill="rgb(46,92,255)" stroke="rgb(46,92,255)" stroke-width="1" opacity="1" d="M 0 0 L 511.5 0 L 512 0.5 L 512 168.5 L 512 170.5 L 512 339.5 L 511 340.5 L 512 341.5 L 512 512 L 0 512 L 0 0 Z M 361 96 L 116 165 Q 111 168 110 174 L 110 339 L 112 344 L 116 347 L 121 349 L 361 416 Q 367 417 371 415 L 374 412 L 376 405 L 376 108 L 374 101 Q 371 94 361 96 Z " /><path fill="rgb(46,92,255)" stroke="rgb(46,92,255)" stroke-width="1" opacity="1" d="M 343.5 131 L 346 131.5 L 346 232 L 166 181.5 L 343.5 131 Z " /><path fill="rgb(46,92,255)" stroke="rgb(46,92,255)" stroke-width="1" opacity="1" d="M 140.5 205 L 319 255 Q 320.3 258.3 315.5 257 L 140.5 307 L 140.5 205 Z " /><path fill="rgb(46,92,255)" stroke="rgb(46,92,255)" stroke-width="1" opacity="1" d="M 343.5 280 L 346 280.5 L 346 381 L 166 330.5 L 343.5 280 Z " /><path fill="rgb(210,220,255)" stroke="rgb(210,220,255)" stroke-width="1" opacity="1" d="M 360.5 96 L 363 96.5 L 360.5 97 L 360.5 96 Z " /><path fill="rgb(210,220,255)" stroke="rgb(210,220,255)" stroke-width="1" opacity="1" d="M 370.5 97 L 373.5 101 L 370.5 97 Z " /><path fill="rgb(210,220,255)" stroke="rgb(210,220,255)" stroke-width="1" opacity="1" d="M 375.5 107 L 376 404.5 L 375 404.5 L 375.5 107 Z " /><path fill="rgb(210,220,255)" stroke="rgb(210,220,255)" stroke-width="1" opacity="1" d="M 115.5 165 L 112.5 169 L 115.5 165 Z " /><path fill="rgb(210,220,255)" stroke="rgb(210,220,255)" stroke-width="1" opacity="1" d="M 110.5 173 L 111 338.5 L 110 338.5 L 110.5 173 Z " /><path fill="rgb(210,220,255)" stroke="rgb(210,220,255)" stroke-width="1" opacity="1" d="M 319 255 Q 322 254 321 257 Q 318 258 319 255 Z " /><path fill="rgb(210,220,255)" stroke="rgb(210,220,255)" stroke-width="1" opacity="1" d="M 112.5 343 L 117 346.5 L 115.5 347 L 112.5 343 Z " /><path fill="rgb(210,220,255)" stroke="rgb(210,220,255)" stroke-width="1" opacity="1" d="M 373.5 411 L 370.5 415 L 373.5 411 Z " /><path fill="rgb(210,220,255)" stroke="rgb(210,220,255)" stroke-width="1" opacity="1" d="M 360.5 415 L 363 415.5 L 360.5 416 L 360.5 415 Z " /><path fill="rgb(254,254,254)" stroke="rgb(254,254,254)" stroke-width="1" opacity="1" d="M 363.5 96 Q 371.6 95.9 374 101.5 L 375 104.5 L 375 407.5 L 369.5 415 L 363.5 416 L 125.5 350 L 115.5 346 L 112 342.5 L 111 340.5 L 111 171.5 L 116.5 165 L 363.5 96 Z M 346 130 L 165 182 L 185 188 L 192 189 L 242 204 L 249 205 L 299 220 L 345 232 L 346 233 L 346 130 Z M 140 205 L 140 307 L 318 257 Q 322 258 321 255 L 140 205 Z M 346 279 L 178 327 L 171 328 L 165 331 L 171 333 L 178 334 L 196 340 L 203 341 L 228 349 L 235 350 L 253 356 L 260 357 L 285 365 L 345 381 L 346 382 L 346 279 Z " /></svg>